<?xml version="1.0" standalone="no"?><!DOCTYPE svg PUBLIC "-//W3C//DTD SVG 1.1//EN" "http://www.w3.org/Graphics/SVG/1.1/DTD/svg11.dtd"><svg t="1499533490349" class="icon" style="" viewBox="0 0 1024 1024" version="1.1" xmlns="http://www.w3.org/2000/svg" p-id="6363" xmlns:xlink="http://www.w3.org/1999/xlink" width="48" height="48"><defs><style type="text/css"></style></defs><path d="M512 3.10303C232.727273 3.10303 3.10303 232.727273 3.10303 512S232.727273 1020.89697 512 1020.89697 1020.89697 791.272727 1020.89697 512 791.272727 3.10303 512 3.10303zM957.284848 553.890909c-3.10303 24.824242-6.206061 51.2-12.412121 74.472727-1.551515 9.309091-4.654545 17.066667-7.757576 24.824242-1.551515 3.10303-1.551515 7.757576-3.10303 10.860606-3.10303 6.206061-4.654545 12.412121-7.757576 18.618182-1.551515 4.654545-4.654545 10.860606-6.206061 15.515152-7.757576 15.515152-15.515152 31.030303-24.824242 46.545455-10.860606 17.066667-21.721212 34.133333-34.133333 49.648485-18.618182-51.2-49.648485-99.29697-88.436364-138.084848-9.309091-9.309091-20.169697-18.618182-31.030303-27.927273-7.757576-6.206061-15.515152-12.412121-23.272727-17.066667-26.375758-18.618182-54.30303-32.581818-83.781818-43.442424 60.509091-40.339394 99.29697-108.606061 99.29697-184.630303 0-37.236364-9.309091-72.921212-27.927273-105.50303-10.860606-18.618182-23.272727-35.684848-38.787879-51.2-20.169697-20.169697-44.993939-37.236364-71.369697-48.09697-26.375758-10.860606-55.854545-17.066667-85.333333-17.066667-121.018182 0-221.866667 102.4-221.866667 221.866667 0 41.890909 12.412121 80.678788 32.581818 113.260606 3.10303 4.654545 6.206061 9.309091 9.309091 13.963636 6.206061 9.309091 13.963636 18.618182 23.272727 26.375758 0 0 0 0 0 0 9.309091 9.309091 18.618182 18.618182 29.478788 24.824242-103.951515 35.684848-187.733333 114.812121-229.624242 218.763636-27.927273-37.236364-49.648485-77.575758-65.163636-122.569697 0-1.551515 0-1.551515-1.551515-3.10303-15.515152-46.545455-24.824242-94.642424-24.824242-145.842424 0-221.866667 159.806061-404.945455 370.812121-440.630303 1.551515 0 3.10303 0 3.10303 0 4.654545-1.551515 10.860606-1.551515 15.515152-1.551515 3.10303 0 4.654545 0 7.757576-1.551515 4.654545 0 9.309091-1.551515 12.412121-1.551515 3.10303 0 6.206061 0 10.860606 0 3.10303 0 7.757576 0 10.860606 0 3.10303 0 7.757576 0 10.860606 0 4.654545 0 7.757576 0 12.412121 0 4.654545 0 7.757576 0 12.412121 0 3.10303 0 6.206061 0 9.309091 0 4.654545 0 9.309091 0 13.963636 1.551515 1.551515 0 3.10303 0 4.654545 0C785.066667 93.090909 958.836364 282.375758 958.836364 512c0 13.963636 0 26.375758-1.551515 40.339394C957.284848 552.339394 957.284848 553.890909 957.284848 553.890909z" p-id="6364"></path></svg>