<?xml version="1.0" standalone="no"?><!DOCTYPE svg PUBLIC "-//W3C//DTD SVG 1.1//EN" "http://www.w3.org/Graphics/SVG/1.1/DTD/svg11.dtd"><svg t="1499530102276" class="icon" style="" viewBox="0 0 1024 1024" version="1.1" xmlns="http://www.w3.org/2000/svg" p-id="919" xmlns:xlink="http://www.w3.org/1999/xlink" width="48" height="48"><defs><style type="text/css"></style></defs><path d="M633.132736 598.409358c-18.762738 0-36.00555-12.380181-41.34935-31.329725l-29.993776-106.275953c-5.969319-21.154428 4.975848-43.398562 25.377389-51.584086l95.325126-38.210434c22.034683-8.839347 47.063933 1.868066 55.897619 23.90558 8.836517 22.037514-1.868066 47.069594-23.905579 55.900449l-59.449775 23.831989 19.492983 69.081634c6.450487 22.847009-6.849574 46.605408-29.696584 53.050234a42.821159 42.821159 0 0 1-11.698053 1.630312zM355.478742 598.409358c-18.762738 0-36.00555-12.380181-41.349351-31.329725l-29.993775-106.275953c-5.969319-21.154428 4.978678-43.398562 25.377389-51.584086l95.325126-38.210434c22.034683-8.839347 47.063933 1.868066 55.897619 23.90558 8.836517 22.037514-1.868066 47.069594-23.90558 55.900449l-59.446943 23.831989 19.492982 69.081634c6.450487 22.847009-6.846744 46.605408-29.696583 53.050234a42.840972 42.840972 0 0 1-11.700884 1.630312z" fill="#007348" p-id="920"></path><path d="M1024 526.752058H0v108.08458h731.755281l97.309238 97.312069a19.609029 19.609029 0 0 0 13.911428 5.757038 19.676958 19.676958 0 0 0 13.911428-33.585556l-69.486381-69.483551h236.599006v-108.08458z" fill="#65513C" p-id="921"></path><path d="M827.533271 674.963255c-29.059742 29.056912-29.059742 76.15481 0 105.214552 29.051251 29.062573 76.15764 29.062573 105.214552 0l-105.214552-105.214552z" fill="#00945E" p-id="922"></path><path d="M864.985157 177.944575c-43.511778-53.02476-106.771274-89.23693-178.54179-97.374337h-0.008491a26.396334 26.396334 0 0 0-3.835196-0.271719c-15.026607 0-27.21149 12.179222-27.211489 27.205829v83.355354c-44.222209-21.293118-93.799539-33.223265-146.167646-33.223265h-91.900339c-186.319736 0-337.361335 151.038769-337.361335 337.358505v228.382347c0 121.486536 98.834825 220.324192 220.324191 220.324192 101.730327 0 184.499787-82.7638 184.499788-184.496957 0-85.93385-69.910942-155.844792-155.839132-155.844792-73.287612 0-132.910041 59.625259-132.910041 132.912871 0 63.171753 51.394449 114.569033 114.566202 114.569033 22.753606 0 41.199339-18.445733 41.199339-41.199339 0-22.756436-18.448564-41.202169-41.199339-41.202169-17.738132 0-32.173185-14.432222-32.173185-32.170355 0-27.851161 22.660202-50.514193 50.514194-50.514194 40.497399 0 73.440454 32.945885 73.440453 73.443284 0 56.296706-45.804404 102.098279-102.101109 102.09828-76.052915 0-137.928344-61.875429-137.928344-137.925514v-228.382348h691.756032c87.663226 0 158.731803-71.071407 158.731803-158.734633 0.00283-83.992194-65.269082-152.714367-147.854566-158.310073z" fill="#05CE7C" p-id="923"></path><path d="M571.398827 598.409358c-18.762738 0-36.008381-12.380181-41.352181-31.329725l-29.990945-106.275953c-5.969319-21.154428 4.978678-43.398562 25.374559-51.584086l95.325126-38.210434c22.037514-8.839347 47.066763 1.868066 55.900449 23.90558s-1.868066 47.069594-23.905579 55.900449l-59.446944 23.831989 19.492982 69.081634c6.450487 22.847009-6.846744 46.605408-29.699414 53.050234a42.835311 42.835311 0 0 1-11.698053 1.630312zM293.744833 598.409358c-18.762738 0-36.00555-12.380181-41.352181-31.329725l-29.990945-106.275953c-5.972149-21.154428 4.975848-43.398562 25.374559-51.584086l95.322295-38.210434c22.034683-8.839347 47.066763 1.868066 55.900449 23.90558 8.833686 22.037514-1.868066 47.069594-23.905579 55.900449l-59.446944 23.831989 19.490152 69.081634c6.450487 22.847009-6.846744 46.605408-29.696583 53.050234a42.801347 42.801347 0 0 1-11.695223 1.630312z" fill="#00945E" p-id="924"></path><path d="M823.344275 288.80295m-48.895203 0a48.895203 48.895203 0 1 0 97.790407 0 48.895203 48.895203 0 1 0-97.790407 0Z" fill="#00945E" p-id="925"></path><path d="M807.938395 275.539684m-14.183147 0a14.183147 14.183147 0 1 0 28.366293 0 14.183147 14.183147 0 1 0-28.366293 0Z" fill="#333E48" p-id="926"></path><path d="M329.116373 247.793248m-7.882671 0a7.882671 7.882671 0 1 0 15.765342 0 7.882671 7.882671 0 1 0-15.765342 0Z" fill="#28B07F" p-id="927"></path><path d="M349.648112 191.275771m-7.885501 0a7.885501 7.885501 0 1 0 15.771003 0 7.885501 7.885501 0 1 0-15.771003 0Z" fill="#28B07F" p-id="928"></path><path d="M241.996584 255.678749m-7.882671 0a7.882671 7.882671 0 1 0 15.765342 0 7.882671 7.882671 0 1 0-15.765342 0Z" fill="#28B07F" p-id="929"></path><path d="M284.806421 222.814946a7.885501 7.885501 0 1 0-15.768172-0.008491 7.885501 7.885501 0 0 0 15.768172 0.008491z" fill="#28B07F" p-id="930"></path><path d="M394.21563 207.041113m-7.882671 0a7.882671 7.882671 0 1 0 15.765342 0 7.882671 7.882671 0 1 0-15.765342 0Z" fill="#28B07F" p-id="931"></path><path d="M585.754628 191.275771m-7.882671 0a7.882671 7.882671 0 1 0 15.765342 0 7.882671 7.882671 0 1 0-15.765342 0Z" fill="#28B07F" p-id="932"></path><path d="M568.050461 247.787587m-7.882671 0a7.882671 7.882671 0 1 0 15.765342 0 7.882671 7.882671 0 1 0-15.765342 0Z" fill="#28B07F" p-id="933"></path><path d="M417.866474 239.907747m-7.882671 0a7.882671 7.882671 0 1 0 15.765342 0 7.882671 7.882671 0 1 0-15.765342 0Z" fill="#28B07F" p-id="934"></path><path d="M463.26896 187.692481m-7.882671 0a7.882671 7.882671 0 1 0 15.765342 0 7.882671 7.882671 0 1 0-15.765342 0Z" fill="#28B07F" p-id="935"></path><path d="M533.771456 199.158442a7.885501 7.885501 0 1 0-15.771003-0.005661 7.885501 7.885501 0 0 0 15.771003 0.005661z" fill="#28B07F" p-id="936"></path><path d="M498.433881 239.907747m-7.882671 0a7.882671 7.882671 0 1 0 15.765342 0 7.882671 7.882671 0 1 0-15.765342 0Z" fill="#28B07F" p-id="937"></path></svg>
