<?xml version="1.0" standalone="no"?><!DOCTYPE svg PUBLIC "-//W3C//DTD SVG 1.1//EN" "http://www.w3.org/Graphics/SVG/1.1/DTD/svg11.dtd"><svg t="1499532866561" class="icon" style="" viewBox="0 0 1024 1024" version="1.1" xmlns="http://www.w3.org/2000/svg" p-id="3900" xmlns:xlink="http://www.w3.org/1999/xlink" width="48" height="48"><defs><style type="text/css"></style></defs><path d="M303.194882 500.400824l0.004093 0.004093c4.753257 4.756327 10.984169 7.135514 17.21815 7.135514 6.231935 0 12.462846-2.378164 17.220197-7.135514l110.674659-110.670565c0.042979-0.042979 0.081864-0.090051 0.127913-0.132006 0.236384-0.240477 0.472767-0.488117 0.696872-0.735757 0.143263-0.156566 0.274246-0.319272 0.414439-0.477884 0.119727-0.144286 0.243547-0.282433 0.364297-0.425695 0.158612-0.193405 0.310062-0.390903 0.460488-0.589424 0.089028-0.11461 0.182149-0.227174 0.268106-0.343831 0.158612-0.212848 0.309038-0.429789 0.460488-0.651846 0.073678-0.104377 0.150426-0.208754 0.221034-0.313132 0.150426-0.225127 0.293689-0.453325 0.433882-0.681522 0.069585-0.105401 0.140193-0.212848 0.205685-0.321318 0.130983-0.225127 0.257873-0.448208 0.38681-0.674359 0.069585-0.12382 0.13917-0.242524 0.205685-0.367367 0.11154-0.212848 0.220011-0.429789 0.328481-0.642636 0.069585-0.147356 0.144286-0.286526 0.212848-0.434905 0.093121-0.196475 0.182149-0.394996 0.267083-0.591471 0.077771-0.170892 0.151449-0.340761 0.224104-0.514723 0.074701-0.179079 0.140193-0.353041 0.210801-0.532119 0.076748-0.196475 0.154519-0.399089 0.227174-0.599657 0.055259-0.155543 0.105401-0.311085 0.155543-0.464581 0.077771-0.230244 0.150426-0.454348 0.222057-0.681522 0.042979-0.1361 0.076748-0.275269 0.11461-0.414439 0.069585-0.243547 0.140193-0.491187 0.201591-0.740874 0.031722-0.127913 0.058328-0.255827 0.089028-0.38681 0.059352-0.255827 0.116657-0.514723 0.170892-0.774643 0.023536-0.132006 0.046049-0.25992 0.070608-0.387833 0.045025-0.257873 0.092098-0.51984 0.130983-0.778736 0.019443-0.147356 0.034792-0.298805 0.054235-0.445138 0.031722-0.243547 0.065492-0.485047 0.089028-0.728594 0.019443-0.197498 0.031722-0.400113 0.041956-0.596588 0.016373-0.197498 0.035816-0.391926 0.042979-0.588401 0.019443-0.379647 0.026606-0.759293 0.031722-1.143033 0-0.019443 0-0.038886 0-0.062422 0-0.021489 0-0.046049 0-0.072655-0.004093-0.37453-0.01228-0.751107-0.031722-1.127683-0.007163-0.196475-0.026606-0.396019-0.042979-0.592494-0.010233-0.196475-0.022513-0.394996-0.041956-0.591471-0.027629-0.245593-0.058328-0.490164-0.089028-0.729617-0.019443-0.147356-0.034792-0.297782-0.054235-0.445138-0.038886-0.26299-0.085958-0.518816-0.130983-0.778736-0.023536-0.132006-0.047072-0.258896-0.070608-0.387833-0.051165-0.25992-0.11154-0.518816-0.170892-0.778736-0.030699-0.127913-0.057305-0.255827-0.089028-0.38374-0.062422-0.24764-0.132006-0.49528-0.201591-0.743944-0.038886-0.134053-0.072655-0.275269-0.11461-0.410346-0.070608-0.229221-0.144286-0.456395-0.222057-0.681522-0.050142-0.155543-0.100284-0.313132-0.155543-0.464581-0.072655-0.204661-0.150426-0.403183-0.227174-0.603751-0.065492-0.174985-0.135076-0.354064-0.205685-0.527003-0.073678-0.173962-0.150426-0.344854-0.225127-0.515746-0.089028-0.201591-0.178055-0.400113-0.267083-0.592494-0.069585-0.147356-0.143263-0.285502-0.216941-0.428765-0.104377-0.218988-0.212848-0.435928-0.328481-0.648776-0.066515-0.122797-0.1361-0.243547-0.205685-0.366344-0.124843-0.229221-0.251733-0.453325-0.38681-0.675382-0.065492-0.106424-0.1361-0.215918-0.201591-0.324388-0.144286-0.228197-0.286526-0.456395-0.437975-0.677429-0.069585-0.10847-0.143263-0.208754-0.216941-0.315178-0.151449-0.220011-0.305969-0.435928-0.464581-0.653893-0.084934-0.115634-0.173962-0.229221-0.26299-0.340761-0.150426-0.197498-0.305969-0.393973-0.464581-0.591471-0.116657-0.144286-0.240477-0.279363-0.360204-0.422625-0.140193-0.158612-0.272199-0.321318-0.414439-0.476861-0.224104-0.248663-0.456395-0.48914-0.689708-0.727571-0.046049-0.048095-0.092098-0.098237-0.13917-0.141216-0.042979-0.040932-0.084934-0.083911-0.127913-0.122797-0.243547-0.239454-0.488117-0.476861-0.73985-0.704035-0.155543-0.140193-0.310062-0.272199-0.465604-0.403183-0.147356-0.127913-0.287549-0.252757-0.436952-0.3776-0.190335-0.156566-0.38681-0.303922-0.581238-0.455371-0.116657-0.088004-0.233314-0.182149-0.348947-0.272199-0.212848-0.158612-0.429789-0.309038-0.649799-0.460488-0.105401-0.072655-0.210801-0.147356-0.318248-0.218988-0.220011-0.149403-0.448208-0.291642-0.674359-0.431835-0.107447-0.068562-0.215918-0.140193-0.328481-0.208754-0.220011-0.132006-0.445138-0.254803-0.670266-0.38374-0.12382-0.069585-0.24457-0.13917-0.37146-0.208754-0.209778-0.11154-0.426719-0.221034-0.639566-0.325411-0.148379-0.072655-0.291642-0.147356-0.437975-0.216941-0.193405-0.093121-0.390903-0.178055-0.589424-0.26299-0.169869-0.077771-0.343831-0.154519-0.517793-0.229221-0.174985-0.073678-0.354064-0.13917-0.528026-0.205685-0.200568-0.080841-0.403183-0.158612-0.604774-0.227174-0.150426-0.060375-0.309038-0.110517-0.460488-0.158612-0.229221-0.074701-0.457418-0.151449-0.685615-0.222057-0.135076-0.038886-0.275269-0.077771-0.410346-0.116657-0.24764-0.067538-0.49221-0.13917-0.743944-0.200568-0.12689-0.030699-0.255827-0.058328-0.38374-0.089028-0.258896-0.058328-0.518816-0.115634-0.778736-0.166799-0.127913-0.025583-0.258896-0.046049-0.38681-0.067538-0.25992-0.048095-0.51984-0.095167-0.778736-0.13303-0.150426-0.023536-0.301875-0.037862-0.453325-0.058328-0.240477-0.030699-0.476861-0.062422-0.720408-0.085958-0.205685-0.021489-0.410346-0.034792-0.615007-0.046049-0.187265-0.01535-0.376577-0.035816-0.569982-0.042979-0.399089-0.01842-0.802272-0.031722-1.204431-0.031722l-97.732905 0 69.106937-69.098751c9.506515-9.509585 9.506515-24.927739 0-34.438347-9.508561-9.507538-24.929786-9.510608-34.440393 0L257.351787 355.296005c-0.285502 0.282433-0.559748 0.577145-0.831948 0.871857-0.127913 0.144286-0.248663 0.290619-0.372483 0.434905-0.1361 0.154519-0.275269 0.310062-0.402159 0.469698-0.153496 0.185218-0.298805 0.37453-0.445138 0.560772-0.097214 0.12382-0.196475 0.243547-0.286526 0.367367-0.157589 0.209778-0.302899 0.421602-0.451278 0.64059-0.077771 0.106424-0.154519 0.214894-0.231267 0.323365-0.147356 0.221034-0.286526 0.446162-0.427742 0.669242-0.068562 0.11154-0.14224 0.221034-0.210801 0.336668-0.132006 0.217964-0.255827 0.443092-0.379647 0.662079-0.072655 0.127913-0.145309 0.252757-0.214894 0.375553-0.11154 0.212848-0.216941 0.427742-0.325411 0.64059-0.071631 0.147356-0.147356 0.289596-0.216941 0.436952-0.093121 0.196475-0.179079 0.396019-0.268106 0.592494-0.072655 0.170892-0.149403 0.341784-0.224104 0.515746-0.067538 0.172939-0.140193 0.352017-0.204661 0.530073-0.077771 0.197498-0.153496 0.400113-0.230244 0.600681-0.052189 0.154519-0.103354 0.309038-0.158612 0.464581-0.073678 0.228197-0.150426 0.452301-0.214894 0.681522-0.042979 0.141216-0.083911 0.278339-0.122797 0.415462-0.068562 0.246617-0.13303 0.490164-0.200568 0.738827-0.029676 0.127913-0.056282 0.25992-0.089028 0.387833-0.056282 0.25992-0.115634 0.514723-0.165776 0.774643-0.026606 0.130983-0.044002 0.264013-0.074701 0.397043-0.042979 0.25378-0.089028 0.508583-0.127913 0.769526-0.022513 0.149403-0.039909 0.306992-0.058328 0.460488-0.031722 0.237407-0.066515 0.471744-0.084934 0.708128-0.024559 0.206708-0.033769 0.415462-0.046049 0.623193-0.017396 0.186242-0.034792 0.375553-0.042979 0.561795-0.020466 0.403183-0.029676 0.805342-0.029676 1.208525l0 0.005117c0 0.398066 0.00921 0.796132 0.029676 1.196245 0.008186 0.190335 0.025583 0.378623 0.042979 0.564865 0.016373 0.206708 0.025583 0.415462 0.046049 0.620124 0.021489 0.239454 0.053212 0.476861 0.084934 0.712221 0.01842 0.154519 0.035816 0.310062 0.058328 0.460488 0.036839 0.254803 0.081864 0.511653 0.127913 0.766456 0.029676 0.132006 0.048095 0.268106 0.074701 0.400113 0.049119 0.255827 0.10847 0.514723 0.165776 0.766456 0.033769 0.130983 0.059352 0.26299 0.094144 0.394996 0.062422 0.243547 0.127913 0.491187 0.195451 0.737804 0.038886 0.13917 0.080841 0.277316 0.122797 0.417509 0.064468 0.227174 0.141216 0.451278 0.214894 0.677429 0.051165 0.153496 0.106424 0.313132 0.158612 0.464581 0.072655 0.200568 0.148379 0.400113 0.226151 0.600681 0.068562 0.178055 0.141216 0.356111 0.208754 0.531096 0.073678 0.173962 0.150426 0.343831 0.224104 0.515746 0.089028 0.195451 0.174985 0.394996 0.268106 0.592494 0.069585 0.147356 0.145309 0.289596 0.216941 0.436952 0.105401 0.212848 0.213871 0.425695 0.325411 0.639566 0.069585 0.122797 0.140193 0.246617 0.208754 0.37453 0.128937 0.222057 0.25378 0.446162 0.384763 0.666172 0.068562 0.112564 0.138146 0.221034 0.206708 0.332575 0.140193 0.225127 0.284479 0.449231 0.430812 0.670266 0.072655 0.11154 0.149403 0.216941 0.230244 0.325411 0.145309 0.215918 0.295735 0.429789 0.452301 0.639566 0.090051 0.122797 0.189312 0.243547 0.282433 0.366344 0.146333 0.186242 0.290619 0.378623 0.445138 0.565888 0.130983 0.158612 0.26606 0.309038 0.402159 0.468674 0.12382 0.143263 0.243547 0.285502 0.37146 0.429789 0.273223 0.294712 0.546446 0.585331 0.828878 0.868787l0.004093 0.004093c0.282433 0.285502 0.573051 0.560772 0.871857 0.831948 0.14224 0.12689 0.286526 0.246617 0.430812 0.37146 0.158612 0.1361 0.309038 0.270153 0.471744 0.403183 0.182149 0.154519 0.37453 0.297782 0.563842 0.445138 0.119727 0.094144 0.2415 0.191358 0.36532 0.282433 0.208754 0.158612 0.424672 0.305969 0.638543 0.457418 0.107447 0.072655 0.216941 0.150426 0.324388 0.225127 0.221034 0.150426 0.445138 0.289596 0.674359 0.433882 0.10847 0.065492 0.217964 0.13917 0.325411 0.204661 0.225127 0.1361 0.449231 0.25992 0.679475 0.387833 0.118704 0.068562 0.23843 0.13917 0.36225 0.203638 0.217964 0.112564 0.432859 0.226151 0.650823 0.333598 0.144286 0.069585 0.281409 0.13917 0.425695 0.209778 0.201591 0.096191 0.403183 0.186242 0.603751 0.275269 0.166799 0.072655 0.333598 0.146333 0.503467 0.217964 0.180102 0.071631 0.35918 0.143263 0.542352 0.211824 0.193405 0.077771 0.38988 0.151449 0.589424 0.222057 0.157589 0.057305 0.316202 0.107447 0.475837 0.161682 0.225127 0.072655 0.444115 0.148379 0.670266 0.216941 0.138146 0.042979 0.286526 0.080841 0.428765 0.119727 0.2415 0.069585 0.480954 0.1361 0.724501 0.197498 0.137123 0.029676 0.26606 0.061398 0.403183 0.092098 0.251733 0.059352 0.503467 0.116657 0.759293 0.166799 0.135076 0.026606 0.272199 0.047072 0.406253 0.073678 0.255827 0.041956 0.503467 0.089028 0.760317 0.128937 0.159636 0.021489 0.313132 0.036839 0.468674 0.057305 0.234337 0.030699 0.468674 0.062422 0.705058 0.084934 0.209778 0.019443 0.421602 0.030699 0.63138 0.047072 0.184195 0.01228 0.367367 0.029676 0.552585 0.037862 0.405229 0.020466 0.807389 0.030699 1.209548 0.030699l97.732905 0-69.101821 69.102844C293.686321 475.474109 293.686321 490.893286 303.194882 500.400824z" p-id="3901"></path><path d="M760.31804 383.930159c-5.230118-7.814989-14.004969-12.507872-23.39585-12.507872l-28.111245 0c-15.547091 0-28.119431 12.564154-28.119431 28.111245l0 168.69612c0 15.547091 12.571317 28.118408 28.119431 28.118408l112.459305 0c15.547091 0 28.119431-12.570293 28.119431-28.118408l0-42.171472c0-5.539156-1.660826-10.995425-4.724605-15.607466L760.31804 383.930159 760.31804 383.930159zM821.270251 568.229652 708.810946 568.229652 708.810946 399.533532l28.111245 0 84.349083 126.525672L821.271274 568.229652 821.270251 568.229652zM947.681312 493.329778l-112.461351-168.692027c-15.689331-23.536043-41.949414-37.565571-70.178339-37.565571L652.581294 287.072181l0-56.229652c0-46.50415-37.848003-84.34806-84.349083-84.34806l-421.735184 0c-46.505173 0-84.34806 37.842887-84.34806 84.34806l0 309.269739c0 46.505173 37.842887 84.349083 84.34806 84.349083l0 0 0 84.34806c0 46.50415 37.842887 84.34806 84.349083 84.34806l32.106232 0c12.564154 48.388057 56.230676 84.34806 108.497063 84.34806 52.210106 0 95.874581-35.960003 108.439758-84.34806l148.536988 0c12.541641 48.388057 56.231699 84.34806 108.472504 84.34806 52.18043 0 95.874581-35.960003 108.414175-84.34806l32.190143 0c46.502104 0 84.347037-37.842887 84.347037-84.34806L961.85001 540.112268C961.848986 523.414981 956.958606 507.220137 947.681312 493.329778L947.681312 493.329778zM146.497027 568.229652c-15.521508 0-28.117384-12.565177-28.117384-28.118408L118.379643 230.842529c0-15.547091 12.594853-28.118408 28.117384-28.118408l421.735184 0c15.547091 0 28.113291 12.570293 28.113291 28.118408l0 309.269739c0 15.552208-12.565177 28.118408-28.113291 28.118408L146.497027 568.230676 146.497027 568.229652zM371.449405 821.268716c-31.069623 0-56.230676-25.190729-56.230676-56.228629 0-31.039947 25.161053-56.230676 56.230676-56.230676 31.039947 0 56.230676 25.190729 56.230676 56.230676C427.679058 796.077987 402.4607 821.268716 371.449405 821.268716L371.449405 821.268716zM736.922191 821.268716c-31.064506 0-56.229652-25.190729-56.229652-56.228629 0-31.039947 25.165146-56.230676 56.229652-56.230676 31.045063 0 56.235792 25.190729 56.235792 56.230676C793.157983 796.077987 767.967254 821.268716 736.922191 821.268716L736.922191 821.268716zM905.619334 708.808388c0 15.547091-12.565177 28.118408-28.117384 28.118408l-32.133861 0c-12.56927-48.390104-56.235792-84.349083-108.446921-84.349083-52.264341 0-95.92677 35.95898-108.49604 84.349083L479.920886 736.926796c-12.57234-48.390104-56.232722-84.349083-108.443851-84.349083-52.266387 0-95.928816 35.95898-108.501156 84.349083l-32.130791 0c-15.522532 0-28.119431-12.570293-28.119431-28.118408l0-84.34806 365.505531 0c46.500057 0 84.349083-37.842887 84.349083-84.349083L652.580271 343.30388l112.459305 0c9.391904 0 18.163685 4.699022 23.393803 12.514012l112.459305 168.69305c3.063779 4.611018 4.724605 10.064216 4.724605 15.601326L905.617287 708.808388 905.619334 708.808388zM254.264473 324.550771l224.926796 0L254.264473 324.550771 254.264473 324.550771zM174.609295 408.900877l374.869806 0L174.609295 408.900877 174.609295 408.900877zM174.609295 408.900877" p-id="3902"></path></svg>