<?xml version="1.0" standalone="no"?><!DOCTYPE svg PUBLIC "-//W3C//DTD SVG 1.1//EN" "http://www.w3.org/Graphics/SVG/1.1/DTD/svg11.dtd"><svg t="1499532887788" class="icon" style="" viewBox="0 0 1059 1024" version="1.1" xmlns="http://www.w3.org/2000/svg" p-id="4571" xmlns:xlink="http://www.w3.org/1999/xlink" width="49.640625" height="48"><defs><style type="text/css"></style></defs><path d="M1048.178 953.535L906.86 812.218c61.802-83.91 99.297-187.604 99.297-300.089 0-277.98-224.97-503.078-503.08-503.078S0 234.149 0 512.129s225.099 503.08 503.079 503.08c141.188 0 266.99-57.407 357.495-150.11l136.792 136.921c13.188 13.188 35.297 13.188 50.812 0 15.386-13.188 15.386-35.297 0-48.485z m-545.1-8.92c-238.286 0-432.484-194.199-432.484-432.486S264.792 79.644 503.079 79.644 935.564 273.842 935.564 512.13 741.366 944.614 503.079 944.614z" fill="" p-id="4572"></path><path d="M759.079 730.634c0 10.99-2.198 19.911-6.594 24.307-4.396 4.396-10.99 6.594-24.307 6.594H443.604c-13.188 0-22.11-2.198-33.099-4.396-8.792-2.198-17.713-6.594-26.505-13.187s-15.386-15.386-26.505-26.506c-6.594 10.99-15.386 19.912-22.11 28.703-8.791 8.792-17.712 15.386-28.702 22.11-8.792 6.594-17.713 8.792-26.505 6.594-8.792-2.198-15.386-6.594-19.911-15.386-6.594-8.792-8.792-17.713-6.594-24.307 2.198-6.594 8.792-15.386 22.109-22.11 4.396-2.197 10.99-6.593 15.386-13.187 4.396-4.396 10.99-10.99 13.188-17.714s6.593-13.187 10.99-19.91c2.197-6.595 4.395-13.188 4.395-19.912V498.941c0-6.594 0-10.99-2.198-13.187h-33.099c-10.99 0-19.91-2.198-24.307-6.594-4.396-4.396-6.594-13.188-6.594-24.307 0-10.99 2.198-19.912 6.594-24.308 4.396-4.396 10.99-6.593 24.307-6.593h48.485c8.792 0 17.713 0 24.307 2.197 6.594 2.198 10.99 4.396 15.386 8.792 4.396 4.396 6.594 10.99 8.792 17.714 2.198 6.593 2.198 17.713 2.198 28.703v163.297c6.594 10.99 13.188 19.91 19.911 26.505s13.188 13.187 22.11 15.385c8.791 4.396 17.712 6.594 28.702 8.792 10.99 2.198 22.11 2.198 37.495 2.198h236.09c10.99 0 19.91 2.198 24.306 6.594 4.655 8.792 6.853 15.386 6.853 26.505z m-384-342.109c-6.594 6.594-15.386 8.792-22.11 8.792-8.791-2.198-15.385-6.594-26.504-15.386-6.594-6.594-15.386-15.386-22.11-19.91-6.593-6.595-15.385-13.189-24.307-22.11-17.713-15.386-19.91-33.099-4.395-48.485 6.593-6.594 13.187-10.99 22.109-10.99 6.594 0 15.385 4.396 26.505 13.188 8.792 8.792 17.713 15.386 24.307 22.11l24.307 24.306c8.792 8.792 13.188 17.714 13.188 26.505 2.327 6.594-2.069 15.386-10.99 21.98z m156.703 170.02h-97.1c-10.99 0-19.91-2.198-22.108-6.593-4.396-4.396-6.594-10.99-6.594-22.11 0-8.791 2.198-15.385 6.594-17.713 4.396-4.396 10.99-4.396 22.109-4.396h97.099V468.04h-77.188c-10.99 0-17.713-2.198-22.11-6.594-4.395-4.395-6.593-10.99-6.593-19.91 0-6.595 2.198-13.189 6.594-17.714 4.396-4.396 10.99-6.594 22.109-6.594h77.188v-39.693h-90.505c-10.99 0-17.713-2.198-22.11-6.594-4.395-4.396-6.593-10.99-6.593-19.91 0-6.595 2.198-13.189 6.594-17.714 4.396-6.594 10.99-8.792 22.109-8.792h90.505v-24.307c0-8.792 2.198-17.713 6.594-22.109 4.396-6.594 13.188-8.792 22.109-8.792 10.99 0 19.911 2.198 24.307 8.792 4.396 6.594 6.594 13.188 6.594 22.11v24.306h117.01c10.99 0 17.713 2.198 22.11 8.792 4.395 4.396 6.593 10.99 6.593 17.713 0 8.792-2.198 15.386-6.594 19.911-4.396 4.396-10.99 6.594-22.109 6.594h-117.01v39.693h103.693c19.91 0 28.703 6.594 28.703 22.11 0 8.791-2.198 15.385-6.594 22.108-4.396 4.396-10.99 8.792-22.11 8.792H591.387v39.693h88.307c13.188 0 22.109 0 30.9 2.198 6.595 2.198 13.189 4.396 17.714 8.792 4.396 4.396 6.594 10.99 8.792 19.911 2.198 8.792 2.198 22.11 2.198 37.495 0 15.386-2.198 28.703-4.396 39.693s-6.594 19.911-10.99 24.307c-4.396 6.594-13.188 10.99-19.911 13.188-8.792 2.198-19.911 4.396-33.099 4.396h-17.713c-6.594 0-13.188-2.198-22.11-4.396-13.187-2.198-22.108-6.594-24.306-10.99-4.396-4.396-4.396-13.188-2.198-22.109 2.198-6.594 2.198-10.99 4.396-13.188 2.198-4.396 4.396-6.594 6.594-6.594 2.198-2.198 6.594-2.198 10.99-2.198 4.395 0 10.99 2.198 17.713 2.198 8.792 2.198 13.188 2.198 17.713 2.198 4.396 0 6.594-2.198 8.792-4.396 2.198-2.198 4.396-4.396 4.396-8.792v-13.187c0-6.594 0-10.99-2.198-13.188-2.198-2.198-6.594-2.198-10.99-2.198h-72.792v99.297c0 10.99-2.198 17.713-8.792 22.109-6.594 4.396-13.188 6.594-22.11 6.594-8.791 0-15.385-2.198-22.108-6.594-6.594-4.396-8.792-10.99-8.792-22.11V558.546h4.396z" fill="" p-id="4573"></path></svg>