<?xml version="1.0" standalone="no"?><!DOCTYPE svg PUBLIC "-//W3C//DTD SVG 1.1//EN" "http://www.w3.org/Graphics/SVG/1.1/DTD/svg11.dtd"><svg t="1499532604209" class="icon" style="" viewBox="0 0 1024 1024" version="1.1" xmlns="http://www.w3.org/2000/svg" p-id="1005" xmlns:xlink="http://www.w3.org/1999/xlink" width="48" height="48"><defs><style type="text/css"></style></defs><path d="M972.416 943.232v-0.256a49.28 49.28 0 0 0-3.968-19.392 466.304 466.304 0 0 0-364.032-364.864c104.448-37.952 179.52-137.216 179.52-254.72a272 272 0 1 0-544 0 271.104 271.104 0 0 0 179.648 254.72 466.56 466.56 0 0 0-368.128 384.896h0.512a48.896 48.896 0 0 0 97.6 0h0.704c33.856-169.728 182.016-298.24 361.728-298.24 179.84 0 327.744 128.512 361.664 298.24h1.024a48.896 48.896 0 0 0 97.792 0h0.128c-0.192-0.128-0.192-0.192-0.192-0.384zM335.936 304a176 176 0 1 1 352 0 176 176 0 1 1-352 0z" p-id="1006"></path></svg>