<?xml version="1.0" standalone="no"?><!DOCTYPE svg PUBLIC "-//W3C//DTD SVG 1.1//EN" "http://www.w3.org/Graphics/SVG/1.1/DTD/svg11.dtd"><svg t="1499536323951" class="icon" style="" viewBox="0 0 1096 1024" version="1.1" xmlns="http://www.w3.org/2000/svg" p-id="21301" xmlns:xlink="http://www.w3.org/1999/xlink" width="51.375" height="48"><defs><style type="text/css"></style></defs><path d="M922.07776 1024H138.550544c-76.44168 0-138.550544-62.108865-138.550544-138.550544V308.951788c0-76.44168 62.108865-138.550544 138.550544-138.550544h121.03266c19.11042 0 33.443235 15.92535 33.443235 33.443235s-15.92535 33.443235-33.443235 33.443235H138.550544c-39.813375 0-71.664075 31.8507-71.664074 71.664074v574.905133c0 39.813375 31.8507 71.664075 71.664074 71.664074h783.527216c39.813375 0 71.664075-31.8507 71.664075-71.664074v-175.178849c0-19.11042 15.92535-33.443235 33.443235-33.443235s33.443235 15.92535 33.443235 33.443235v175.178849c1.592535 76.44168-60.51633 140.143079-138.550545 140.143079z" fill="#FFFFFF" p-id="21302"></path><path d="M476.167963 813.785381h-1.592535c-19.11042-1.592535-33.443235-17.517885-31.8507-35.03577 0-6.37014 35.03577-589.237947 584.460342-608.348367 19.11042 0 35.03577 14.332815 35.03577 31.8507 0 19.11042-14.332815 35.03577-31.8507 35.03577C543.054432 254.805599 511.203733 761.231726 511.203733 781.934681c-1.592535 17.517885-15.92535 31.8507-35.03577 31.8507z" fill="#FFFFFF" p-id="21303"></path><path d="M885.449456 492.093313c-6.37014 0-12.74028-1.592535-19.11042-4.777605-15.92535-9.55521-20.702955-31.8507-9.55521-46.183515l156.068429-238.880249-254.805599-138.550544c-15.92535-9.55521-22.29549-28.66563-14.332815-46.183515s28.66563-22.29549 46.183515-14.332815L1078.14619 159.253499c7.962675 4.777605 14.332815 12.74028 17.517885 20.702955s0 19.11042-4.777605 27.073095L914.115086 476.167963c-6.37014 11.147745-17.517885 15.92535-28.66563 15.92535z" fill="#FFFFFF" p-id="21304"></path></svg>